<svg width="345" height="120" viewBox="0 0 345 120" fill="none" xmlns="http://www.w3.org/2000/svg">
<rect width="345" height="120" rx="8" fill="url(#paint0_linear_2008_1876)" fill-opacity="0.8"/>
<g clip-path="url(#clip0_2008_1876)">
<path d="M322.622 111.63L323.421 112.483C323.691 112.772 323.826 112.917 323.983 113.03C324.123 113.131 324.274 113.213 324.435 113.275C324.615 113.345 324.81 113.379 325.2 113.448L326.352 113.651L325.498 114.451C325.209 114.721 325.064 114.856 324.951 115.013C324.85 115.153 324.768 115.304 324.706 115.465C324.637 115.645 324.602 115.84 324.533 116.23L324.33 117.381L323.531 116.528C323.26 116.239 323.125 116.094 322.968 115.981C322.829 115.88 322.677 115.798 322.517 115.736C322.336 115.667 322.141 115.632 321.751 115.563L320.6 115.36L321.454 114.561C321.743 114.29 321.887 114.155 322 113.998C322.101 113.859 322.183 113.707 322.245 113.547C322.315 113.366 322.349 113.171 322.418 112.781L322.622 111.63Z" stroke="#642CA9" stroke-opacity="0.4" stroke-width="1.6" stroke-linecap="round" stroke-linejoin="round"/>
<path d="M325.966 102.986L327.301 104.721C327.62 105.136 327.78 105.344 327.978 105.499C328.154 105.637 328.352 105.744 328.564 105.817C328.803 105.898 329.064 105.919 329.586 105.96L331.768 106.131L330.033 107.466C329.618 107.786 329.411 107.945 329.255 108.144C329.117 108.32 329.01 108.518 328.938 108.73C328.856 108.968 328.836 109.229 328.795 109.751L328.623 111.933L327.288 110.199C326.969 109.784 326.809 109.576 326.61 109.421C326.434 109.283 326.236 109.176 326.025 109.103C325.786 109.022 325.525 109.001 325.003 108.96L322.821 108.789L324.556 107.454C324.971 107.134 325.178 106.975 325.334 106.776C325.471 106.6 325.579 106.402 325.651 106.19C325.733 105.952 325.753 105.691 325.794 105.169L325.966 102.986Z" stroke="#642CA9" stroke-opacity="0.4" stroke-width="1.6" stroke-linecap="round" stroke-linejoin="round"/>
</g>
<g clip-path="url(#clip1_2008_1876)">
<path d="M239.384 47.848L240.215 45.4903M231.092 51.8167L231.924 49.459M238.621 46.2535L240.978 47.0848M230.329 50.2222L232.687 51.0535M234.723 43.0236L234.092 43.633C233.879 43.8392 233.772 43.9423 233.65 44.0213C233.542 44.0914 233.425 44.1473 233.303 44.1876C233.165 44.2329 233.017 44.2514 232.723 44.2883L231.853 44.3974L232.462 45.0281C232.668 45.2416 232.771 45.3483 232.85 45.4702C232.921 45.5783 232.976 45.6951 233.017 45.8175C233.062 45.9555 233.081 46.1027 233.117 46.3973L233.226 47.2675L233.857 46.6581C234.071 46.4519 234.177 46.3487 234.299 46.2697C234.407 46.1996 234.524 46.1438 234.647 46.1035C234.785 46.0581 234.932 46.0397 235.226 46.0028L236.097 45.8937L235.487 45.263C235.281 45.0495 235.178 44.9428 235.099 44.8209C235.029 44.7127 234.973 44.596 234.933 44.4736C234.887 44.3356 234.869 44.1883 234.832 43.8938L234.723 43.0236ZM238.011 49.4848L237.247 50.2237C237.033 50.4299 236.926 50.533 236.805 50.612C236.696 50.6821 236.58 50.738 236.457 50.7783C236.319 50.8236 236.172 50.8421 235.878 50.879L234.822 51.0112L235.561 51.776C235.768 51.9895 235.871 52.0962 235.95 52.2181C236.02 52.3262 236.076 52.443 236.116 52.5654C236.161 52.7034 236.18 52.8506 236.217 53.1451L236.349 54.2003L237.114 53.4614C237.327 53.2552 237.434 53.1521 237.556 53.0731C237.664 53.003 237.781 52.9471 237.903 52.9068C238.041 52.8614 238.188 52.843 238.483 52.8061L239.538 52.6739L238.799 51.9091C238.593 51.6956 238.49 51.5889 238.411 51.467C238.341 51.3589 238.285 51.2421 238.244 51.1197C238.199 50.9817 238.181 50.8345 238.144 50.5399L238.011 49.4848Z" stroke="#642CA9" stroke-opacity="0.4" stroke-width="1.2" stroke-linecap="round" stroke-linejoin="round"/>
</g>
<g clip-path="url(#clip2_2008_1876)">
<path d="M307.128 44.3951L305.866 40.4243M303.341 32.4827L302.079 28.5119M300.725 31.1285L304.695 29.8661M304.512 43.0409L308.483 41.7785M309.082 27.1599L308.843 31.1785C308.804 31.8321 308.785 32.1588 308.688 32.4591C308.603 32.7252 308.474 32.9751 308.306 33.1985C308.116 33.4505 307.86 33.655 307.349 34.0641L304.206 36.5797L308.225 36.8186C308.879 36.8574 309.205 36.8768 309.506 36.9731C309.772 37.0584 310.022 37.1878 310.245 37.3558C310.497 37.5453 310.702 37.8008 311.111 38.3119L313.626 41.4549L313.865 37.4362C313.904 36.7827 313.923 36.456 314.02 36.1557C314.105 35.8896 314.234 35.6397 314.402 35.4163C314.592 35.1643 314.847 34.9598 315.358 34.5507L318.501 32.035L314.483 31.7962C313.829 31.7574 313.503 31.738 313.202 31.6417C312.936 31.5564 312.686 31.427 312.463 31.259C312.211 31.0695 312.006 30.8139 311.597 30.3028L309.082 27.1599Z" stroke="#642CA9" stroke-opacity="0.4" stroke-width="1.6" stroke-linecap="round" stroke-linejoin="round"/>
</g>
<rect x="226.361" y="90" width="2" height="8" rx="1" transform="rotate(24.8454 226.361 90)" fill="#642CA9" fill-opacity="0.4"/>
<rect x="306.048" y="67.2041" width="2" height="8" rx="1" transform="rotate(91.4592 306.048 67.2041)" fill="#642CA9" fill-opacity="0.4"/>
<rect x="259" y="13.5977" width="2" height="8" rx="1" transform="rotate(-52.9937 259 13.5977)" fill="#642CA9" fill-opacity="0.4"/>
<defs>
<linearGradient id="paint0_linear_2008_1876" x1="0" y1="0" x2="337.487" y2="138.33" gradientUnits="userSpaceOnUse">
<stop stop-color="#642CA9"/>
<stop offset="1" stop-color="#FF36AB"/>
</linearGradient>
<clipPath id="clip0_2008_1876">
<rect width="16" height="16" fill="white" transform="translate(316 104.556) rotate(-16.5424)"/>
</clipPath>
<clipPath id="clip1_2008_1876">
<rect width="12" height="12" fill="white" transform="translate(231.99 41) rotate(19.4222)"/>
</clipPath>
<clipPath id="clip2_2008_1876">
<rect width="20" height="20" fill="white" transform="translate(298 28.0596) rotate(-17.6367)"/>
</clipPath>
</defs>
</svg>
