<svg width="500" height="65" viewBox="0 0 393 65" fill="none" xmlns="http://www.w3.org/2000/svg">
<path d="M2.78 6.12C7.18 6.12 11.04 6.98 14.36 8.7C17.72 10.42 20.3 12.88 22.1 16.08C23.94 19.24 24.86 22.92 24.86 27.12C24.86 31.32 23.94 35 22.1 38.16C20.3 41.28 17.72 43.7 14.36 45.42C11.04 47.14 7.18 48 2.78 48H-11.86V6.12H2.78ZM2.48 40.86C6.88 40.86 10.28 39.66 12.68 37.26C15.08 34.86 16.28 31.48 16.28 27.12C16.28 22.76 15.08 19.36 12.68 16.92C10.28 14.44 6.88 13.2 2.48 13.2H-3.46V40.86H2.48ZM27.7878 31.26C27.7878 27.9 28.4478 24.92 29.7678 22.32C31.1278 19.72 32.9478 17.72 35.2278 16.32C37.5478 14.92 40.1278 14.22 42.9678 14.22C45.4478 14.22 47.6078 14.72 49.4478 15.72C51.3278 16.72 52.8278 17.98 53.9478 19.5V14.76H62.4078V48H53.9478V43.14C52.8678 44.7 51.3678 46 49.4478 47.04C47.5678 48.04 45.3878 48.54 42.9078 48.54C40.1078 48.54 37.5478 47.82 35.2278 46.38C32.9478 44.94 31.1278 42.92 29.7678 40.32C28.4478 37.68 27.7878 34.66 27.7878 31.26ZM53.9478 31.38C53.9478 29.34 53.5478 27.6 52.7478 26.16C51.9478 24.68 50.8678 23.56 49.5078 22.8C48.1478 22 46.6878 21.6 45.1278 21.6C43.5678 21.6 42.1278 21.98 40.8078 22.74C39.4878 23.5 38.4078 24.62 37.5678 26.1C36.7678 27.54 36.3678 29.26 36.3678 31.26C36.3678 33.26 36.7678 35.02 37.5678 36.54C38.4078 38.02 39.4878 39.16 40.8078 39.96C42.1678 40.76 43.6078 41.16 45.1278 41.16C46.6878 41.16 48.1478 40.78 49.5078 40.02C50.8678 39.22 51.9478 38.1 52.7478 36.66C53.5478 35.18 53.9478 33.42 53.9478 31.38ZM79.1919 21.66V37.74C79.1919 38.86 79.4519 39.68 79.9719 40.2C80.5319 40.68 81.4519 40.92 82.7319 40.92H86.6319V48H81.3519C74.2719 48 70.7319 44.56 70.7319 37.68V21.66H66.7719V14.76H70.7319V6.54H79.1919V14.76H86.6319V21.66H79.1919ZM95.7336 10.8C94.2536 10.8 93.0136 10.34 92.0136 9.42C91.0536 8.46 90.5736 7.28 90.5736 5.88C90.5736 4.48 91.0536 3.32 92.0136 2.4C93.0136 1.44 94.2536 0.959998 95.7336 0.959998C97.2136 0.959998 98.4336 1.44 99.3936 2.4C100.394 3.32 100.894 4.48 100.894 5.88C100.894 7.28 100.394 8.46 99.3936 9.42C98.4336 10.34 97.2136 10.8 95.7336 10.8ZM99.8736 14.76V48H91.4736V14.76H99.8736ZM125.393 14.28C129.353 14.28 132.553 15.54 134.993 18.06C137.433 20.54 138.653 24.02 138.653 28.5V48H130.253V29.64C130.253 27 129.593 24.98 128.273 23.58C126.953 22.14 125.153 21.42 122.873 21.42C120.553 21.42 118.713 22.14 117.353 23.58C116.033 24.98 115.373 27 115.373 29.64V48H106.973V14.76H115.373V18.9C116.493 17.46 117.913 16.34 119.633 15.54C121.393 14.7 123.313 14.28 125.393 14.28ZM158.461 14.22C160.941 14.22 163.121 14.72 165.001 15.72C166.881 16.68 168.361 17.94 169.441 19.5V14.76H177.901V48.24C177.901 51.32 177.281 54.06 176.041 56.46C174.801 58.9 172.941 60.82 170.461 62.22C167.981 63.66 164.981 64.38 161.461 64.38C156.741 64.38 152.861 63.28 149.821 61.08C146.821 58.88 145.121 55.88 144.721 52.08H153.061C153.501 53.6 154.441 54.8 155.881 55.68C157.361 56.6 159.141 57.06 161.221 57.06C163.661 57.06 165.641 56.32 167.161 54.84C168.681 53.4 169.441 51.2 169.441 48.24V43.08C168.361 44.64 166.861 45.94 164.941 46.98C163.061 48.02 160.901 48.54 158.461 48.54C155.661 48.54 153.101 47.82 150.781 46.38C148.461 44.94 146.621 42.92 145.261 40.32C143.941 37.68 143.281 34.66 143.281 31.26C143.281 27.9 143.941 24.92 145.261 22.32C146.621 19.72 148.441 17.72 150.721 16.32C153.041 14.92 155.621 14.22 158.461 14.22ZM169.441 31.38C169.441 29.34 169.041 27.6 168.241 26.16C167.441 24.68 166.361 23.56 165.001 22.8C163.641 22 162.181 21.6 160.621 21.6C159.061 21.6 157.621 21.98 156.301 22.74C154.981 23.5 153.901 24.62 153.061 26.1C152.261 27.54 151.861 29.26 151.861 31.26C151.861 33.26 152.261 35.02 153.061 36.54C153.901 38.02 154.981 39.16 156.301 39.96C157.661 40.76 159.101 41.16 160.621 41.16C162.181 41.16 163.641 40.78 165.001 40.02C166.361 39.22 167.441 38.1 168.241 36.66C169.041 35.18 169.441 33.42 169.441 31.38ZM212.642 6.12C217.042 6.12 220.902 6.98 224.222 8.7C227.582 10.42 230.162 12.88 231.962 16.08C233.802 19.24 234.722 22.92 234.722 27.12C234.722 31.32 233.802 35 231.962 38.16C230.162 41.28 227.582 43.7 224.222 45.42C220.902 47.14 217.042 48 212.642 48H198.002V6.12H212.642ZM212.342 40.86C216.742 40.86 220.142 39.66 222.542 37.26C224.942 34.86 226.142 31.48 226.142 27.12C226.142 22.76 224.942 19.36 222.542 16.92C220.142 14.44 216.742 13.2 212.342 13.2H206.402V40.86H212.342ZM270.71 30.66C270.71 31.86 270.63 32.94 270.47 33.9H246.17C246.37 36.3 247.21 38.18 248.69 39.54C250.17 40.9 251.99 41.58 254.15 41.58C257.27 41.58 259.49 40.24 260.81 37.56H269.87C268.91 40.76 267.07 43.4 264.35 45.48C261.63 47.52 258.29 48.54 254.33 48.54C251.13 48.54 248.25 47.84 245.69 46.44C243.17 45 241.19 42.98 239.75 40.38C238.35 37.78 237.65 34.78 237.65 31.38C237.65 27.94 238.35 24.92 239.75 22.32C241.15 19.72 243.11 17.72 245.63 16.32C248.15 14.92 251.05 14.22 254.33 14.22C257.49 14.22 260.31 14.9 262.79 16.26C265.31 17.62 267.25 19.56 268.61 22.08C270.01 24.56 270.71 27.42 270.71 30.66ZM262.01 28.26C261.97 26.1 261.19 24.38 259.67 23.1C258.15 21.78 256.29 21.12 254.09 21.12C252.01 21.12 250.25 21.76 248.81 23.04C247.41 24.28 246.55 26.02 246.23 28.26H262.01ZM284.041 3.6V48H275.641V3.6H284.041ZM295.4 10.8C293.92 10.8 292.68 10.34 291.68 9.42C290.72 8.46 290.24 7.28 290.24 5.88C290.24 4.48 290.72 3.32 291.68 2.4C292.68 1.44 293.92 0.959998 295.4 0.959998C296.88 0.959998 298.1 1.44 299.06 2.4C300.06 3.32 300.56 4.48 300.56 5.88C300.56 7.28 300.06 8.46 299.06 9.42C298.1 10.34 296.88 10.8 295.4 10.8ZM299.54 14.76V48H291.14V14.76H299.54ZM319.659 14.22C322.139 14.22 324.319 14.72 326.199 15.72C328.079 16.68 329.559 17.94 330.639 19.5V14.76H339.099V48.24C339.099 51.32 338.479 54.06 337.239 56.46C335.999 58.9 334.139 60.82 331.659 62.22C329.179 63.66 326.179 64.38 322.659 64.38C317.939 64.38 314.059 63.28 311.019 61.08C308.019 58.88 306.319 55.88 305.919 52.08H314.259C314.699 53.6 315.639 54.8 317.079 55.68C318.559 56.6 320.339 57.06 322.419 57.06C324.859 57.06 326.839 56.32 328.359 54.84C329.879 53.4 330.639 51.2 330.639 48.24V43.08C329.559 44.64 328.059 45.94 326.139 46.98C324.259 48.02 322.099 48.54 319.659 48.54C316.859 48.54 314.299 47.82 311.979 46.38C309.659 44.94 307.819 42.92 306.459 40.32C305.139 37.68 304.479 34.66 304.479 31.26C304.479 27.9 305.139 24.92 306.459 22.32C307.819 19.72 309.639 17.72 311.919 16.32C314.239 14.92 316.819 14.22 319.659 14.22ZM330.639 31.38C330.639 29.34 330.239 27.6 329.439 26.16C328.639 24.68 327.559 23.56 326.199 22.8C324.839 22 323.379 21.6 321.819 21.6C320.259 21.6 318.819 21.98 317.499 22.74C316.179 23.5 315.099 24.62 314.259 26.1C313.459 27.54 313.059 29.26 313.059 31.26C313.059 33.26 313.459 35.02 314.259 36.54C315.099 38.02 316.179 39.16 317.499 39.96C318.859 40.76 320.299 41.16 321.819 41.16C323.379 41.16 324.839 40.78 326.199 40.02C327.559 39.22 328.639 38.1 329.439 36.66C330.239 35.18 330.639 33.42 330.639 31.38ZM364.823 14.28C367.343 14.28 369.583 14.84 371.543 15.96C373.503 17.04 375.023 18.66 376.103 20.82C377.223 22.94 377.783 25.5 377.783 28.5V48H369.383V29.64C369.383 27 368.723 24.98 367.403 23.58C366.083 22.14 364.283 21.42 362.003 21.42C359.683 21.42 357.843 22.14 356.483 23.58C355.163 24.98 354.503 27 354.503 29.64V48H346.103V3.6H354.503V18.9C355.583 17.46 357.023 16.34 358.823 15.54C360.623 14.7 362.623 14.28 364.823 14.28ZM394.351 21.66V37.74C394.351 38.86 394.611 39.68 395.131 40.2C395.691 40.68 396.611 40.92 397.891 40.92H401.791V48H396.511C389.431 48 385.891 44.56 385.891 37.68V21.66H381.931V14.76H385.891V6.54H394.351V14.76H401.791V21.66H394.351ZM419.353 48.54C416.633 48.54 414.193 48.06 412.033 47.1C409.873 46.1 408.153 44.76 406.873 43.08C405.633 41.4 404.953 39.54 404.833 37.5H413.293C413.453 38.78 414.073 39.84 415.153 40.68C416.273 41.52 417.653 41.94 419.293 41.94C420.893 41.94 422.133 41.62 423.013 40.98C423.933 40.34 424.393 39.52 424.393 38.52C424.393 37.44 423.833 36.64 422.713 36.12C421.633 35.56 419.893 34.96 417.493 34.32C415.013 33.72 412.973 33.1 411.373 32.46C409.813 31.82 408.453 30.84 407.293 29.52C406.173 28.2 405.613 26.42 405.613 24.18C405.613 22.34 406.133 20.66 407.173 19.14C408.253 17.62 409.773 16.42 411.733 15.54C413.733 14.66 416.073 14.22 418.753 14.22C422.713 14.22 425.873 15.22 428.233 17.22C430.593 19.18 431.893 21.84 432.133 25.2H424.093C423.973 23.88 423.413 22.84 422.413 22.08C421.453 21.28 420.153 20.88 418.513 20.88C416.993 20.88 415.813 21.16 414.973 21.72C414.173 22.28 413.773 23.06 413.773 24.06C413.773 25.18 414.333 26.04 415.453 26.64C416.573 27.2 418.313 27.78 420.673 28.38C423.073 28.98 425.053 29.6 426.613 30.24C428.173 30.88 429.513 31.88 430.633 33.24C431.793 34.56 432.393 36.32 432.433 38.52C432.433 40.44 431.893 42.16 430.813 43.68C429.773 45.2 428.253 46.4 426.253 47.28C424.293 48.12 421.993 48.54 419.353 48.54Z" fill="url(#paint0_linear_17_217)" fill-opacity="0.32"/>
<defs>
<linearGradient id="paint0_linear_17_217" x1="-16" y1="-9" x2="436" y2="63" gradientUnits="userSpaceOnUse">
<stop stop-color="#642CA9"/>
<stop offset="1" stop-color="#FF36AB"/>
</linearGradient>
</defs>
</svg>
