<svg width="500" height="49" viewBox="0 0 393 49" fill="none" xmlns="http://www.w3.org/2000/svg">
<path d="M18.68 19.08C18.68 21.32 18.14 23.42 17.06 25.38C16.02 27.34 14.36 28.92 12.08 30.12C9.84 31.32 7 31.92 3.56 31.92H-3.46V48H-11.86V6.12H3.56C6.8 6.12 9.56 6.68 11.84 7.8C14.12 8.92 15.82 10.46 16.94 12.42C18.1 14.38 18.68 16.6 18.68 19.08ZM3.2 25.14C5.52 25.14 7.24 24.62 8.36 23.58C9.48 22.5 10.04 21 10.04 19.08C10.04 15 7.76 12.96 3.2 12.96H-3.46V25.14H3.2ZM31.8439 19.92C32.9239 18.16 34.3239 16.78 36.0439 15.78C37.8039 14.78 39.8039 14.28 42.0439 14.28V23.1H39.8239C37.1839 23.1 35.1839 23.72 33.8239 24.96C32.5039 26.2 31.8439 28.36 31.8439 31.44V48H23.4439V14.76H31.8439V19.92ZM61.2617 48.54C58.0617 48.54 55.1817 47.84 52.6217 46.44C50.0617 45 48.0417 42.98 46.5617 40.38C45.1217 37.78 44.4017 34.78 44.4017 31.38C44.4017 27.98 45.1417 24.98 46.6217 22.38C48.1417 19.78 50.2017 17.78 52.8017 16.38C55.4017 14.94 58.3017 14.22 61.5017 14.22C64.7017 14.22 67.6017 14.94 70.2017 16.38C72.8017 17.78 74.8417 19.78 76.3217 22.38C77.8417 24.98 78.6017 27.98 78.6017 31.38C78.6017 34.78 77.8217 37.78 76.2617 40.38C74.7417 42.98 72.6617 45 70.0217 46.44C67.4217 47.84 64.5017 48.54 61.2617 48.54ZM61.2617 41.22C62.7817 41.22 64.2017 40.86 65.5217 40.14C66.8817 39.38 67.9617 38.26 68.7617 36.78C69.5617 35.3 69.9617 33.5 69.9617 31.38C69.9617 28.22 69.1217 25.8 67.4417 24.12C65.8017 22.4 63.7817 21.54 61.3817 21.54C58.9817 21.54 56.9617 22.4 55.3217 24.12C53.7217 25.8 52.9217 28.22 52.9217 31.38C52.9217 34.54 53.7017 36.98 55.2617 38.7C56.8617 40.38 58.8617 41.22 61.2617 41.22ZM98.8034 21.66H92.9834V48H84.4634V21.66H80.6834V14.76H84.4634V13.08C84.4634 9 85.6234 6 87.9434 4.08C90.2634 2.16 93.7634 1.26 98.4434 1.38V8.46C96.4034 8.42 94.9834 8.76 94.1834 9.48C93.3834 10.2 92.9834 11.5 92.9834 13.38V14.76H98.8034V21.66ZM107.307 10.8C105.827 10.8 104.587 10.34 103.587 9.42C102.627 8.46 102.147 7.28 102.147 5.88C102.147 4.48 102.627 3.32 103.587 2.4C104.587 1.44 105.827 0.959998 107.307 0.959998C108.787 0.959998 110.007 1.44 110.967 2.4C111.967 3.32 112.467 4.48 112.467 5.88C112.467 7.28 111.967 8.46 110.967 9.42C110.007 10.34 108.787 10.8 107.307 10.8ZM111.447 14.76V48H103.047V14.76H111.447ZM126.946 3.6V48H118.546V3.6H126.946ZM164.945 30.66C164.945 31.86 164.865 32.94 164.705 33.9H140.405C140.605 36.3 141.445 38.18 142.925 39.54C144.405 40.9 146.225 41.58 148.385 41.58C151.505 41.58 153.725 40.24 155.045 37.56H164.105C163.145 40.76 161.305 43.4 158.585 45.48C155.865 47.52 152.525 48.54 148.565 48.54C145.365 48.54 142.485 47.84 139.925 46.44C137.405 45 135.425 42.98 133.985 40.38C132.585 37.78 131.885 34.78 131.885 31.38C131.885 27.94 132.585 24.92 133.985 22.32C135.385 19.72 137.345 17.72 139.865 16.32C142.385 14.92 145.285 14.22 148.565 14.22C151.725 14.22 154.545 14.9 157.025 16.26C159.545 17.62 161.485 19.56 162.845 22.08C164.245 24.56 164.945 27.42 164.945 30.66ZM156.245 28.26C156.205 26.1 155.425 24.38 153.905 23.1C152.385 21.78 150.525 21.12 148.325 21.12C146.245 21.12 144.485 21.76 143.045 23.04C141.645 24.28 140.785 26.02 140.465 28.26H156.245ZM213.514 19.08C213.514 21.32 212.974 23.42 211.894 25.38C210.854 27.34 209.194 28.92 206.914 30.12C204.674 31.32 201.834 31.92 198.394 31.92H191.374V48H182.974V6.12H198.394C201.634 6.12 204.394 6.68 206.674 7.8C208.954 8.92 210.654 10.46 211.774 12.42C212.934 14.38 213.514 16.6 213.514 19.08ZM198.034 25.14C200.354 25.14 202.074 24.62 203.194 23.58C204.314 22.5 204.874 21 204.874 19.08C204.874 15 202.594 12.96 198.034 12.96H191.374V25.14H198.034ZM226.677 19.92C227.757 18.16 229.157 16.78 230.877 15.78C232.637 14.78 234.637 14.28 236.877 14.28V23.1H234.657C232.017 23.1 230.017 23.72 228.657 24.96C227.337 26.2 226.677 28.36 226.677 31.44V48H218.277V14.76H226.677V19.92ZM256.095 48.54C252.895 48.54 250.015 47.84 247.455 46.44C244.895 45 242.875 42.98 241.395 40.38C239.955 37.78 239.235 34.78 239.235 31.38C239.235 27.98 239.975 24.98 241.455 22.38C242.975 19.78 245.035 17.78 247.635 16.38C250.235 14.94 253.135 14.22 256.335 14.22C259.535 14.22 262.435 14.94 265.035 16.38C267.635 17.78 269.675 19.78 271.155 22.38C272.675 24.98 273.435 27.98 273.435 31.38C273.435 34.78 272.655 37.78 271.095 40.38C269.575 42.98 267.495 45 264.855 46.44C262.255 47.84 259.335 48.54 256.095 48.54ZM256.095 41.22C257.615 41.22 259.035 40.86 260.355 40.14C261.715 39.38 262.795 38.26 263.595 36.78C264.395 35.3 264.795 33.5 264.795 31.38C264.795 28.22 263.955 25.8 262.275 24.12C260.635 22.4 258.615 21.54 256.215 21.54C253.815 21.54 251.795 22.4 250.155 24.12C248.555 25.8 247.755 28.22 247.755 31.38C247.755 34.54 248.535 36.98 250.095 38.7C251.695 40.38 253.695 41.22 256.095 41.22ZM324.477 14.76L314.757 48H305.697L299.637 24.78L293.577 48H284.457L274.677 14.76H283.197L289.077 40.08L295.437 14.76H304.317L310.557 40.02L316.437 14.76H324.477ZM358.722 30.66C358.722 31.86 358.642 32.94 358.482 33.9H334.182C334.382 36.3 335.222 38.18 336.702 39.54C338.182 40.9 340.002 41.58 342.162 41.58C345.282 41.58 347.502 40.24 348.822 37.56H357.882C356.922 40.76 355.082 43.4 352.362 45.48C349.642 47.52 346.302 48.54 342.342 48.54C339.142 48.54 336.262 47.84 333.702 46.44C331.182 45 329.202 42.98 327.762 40.38C326.362 37.78 325.662 34.78 325.662 31.38C325.662 27.94 326.362 24.92 327.762 22.32C329.162 19.72 331.122 17.72 333.642 16.32C336.162 14.92 339.062 14.22 342.342 14.22C345.502 14.22 348.322 14.9 350.802 16.26C353.322 17.62 355.262 19.56 356.622 22.08C358.022 24.56 358.722 27.42 358.722 30.66ZM350.022 28.26C349.982 26.1 349.202 24.38 347.682 23.1C346.162 21.78 344.302 21.12 342.102 21.12C340.022 21.12 338.262 21.76 336.822 23.04C335.422 24.28 334.562 26.02 334.242 28.26H350.022ZM376.373 48.54C373.653 48.54 371.213 48.06 369.053 47.1C366.893 46.1 365.173 44.76 363.893 43.08C362.653 41.4 361.973 39.54 361.853 37.5H370.313C370.473 38.78 371.093 39.84 372.173 40.68C373.293 41.52 374.673 41.94 376.313 41.94C377.913 41.94 379.153 41.62 380.033 40.98C380.953 40.34 381.413 39.52 381.413 38.52C381.413 37.44 380.853 36.64 379.733 36.12C378.653 35.56 376.913 34.96 374.513 34.32C372.033 33.72 369.993 33.1 368.393 32.46C366.833 31.82 365.473 30.84 364.313 29.52C363.193 28.2 362.633 26.42 362.633 24.18C362.633 22.34 363.153 20.66 364.193 19.14C365.273 17.62 366.793 16.42 368.753 15.54C370.753 14.66 373.093 14.22 375.773 14.22C379.733 14.22 382.893 15.22 385.253 17.22C387.613 19.18 388.913 21.84 389.153 25.2H381.113C380.993 23.88 380.433 22.84 379.433 22.08C378.473 21.28 377.173 20.88 375.533 20.88C374.013 20.88 372.833 21.16 371.993 21.72C371.193 22.28 370.793 23.06 370.793 24.06C370.793 25.18 371.353 26.04 372.473 26.64C373.593 27.2 375.333 27.78 377.693 28.38C380.093 28.98 382.073 29.6 383.633 30.24C385.193 30.88 386.533 31.88 387.653 33.24C388.813 34.56 389.413 36.32 389.453 38.52C389.453 40.44 388.913 42.16 387.833 43.68C386.793 45.2 385.273 46.4 383.273 47.28C381.313 48.12 379.013 48.54 376.373 48.54ZM407.869 48.54C405.149 48.54 402.709 48.06 400.549 47.1C398.389 46.1 396.669 44.76 395.389 43.08C394.149 41.4 393.469 39.54 393.349 37.5H401.809C401.969 38.78 402.589 39.84 403.669 40.68C404.789 41.52 406.169 41.94 407.809 41.94C409.409 41.94 410.649 41.62 411.529 40.98C412.449 40.34 412.909 39.52 412.909 38.52C412.909 37.44 412.349 36.64 411.229 36.12C410.149 35.56 408.409 34.96 406.009 34.32C403.529 33.72 401.489 33.1 399.889 32.46C398.329 31.82 396.969 30.84 395.809 29.52C394.689 28.2 394.129 26.42 394.129 24.18C394.129 22.34 394.649 20.66 395.689 19.14C396.769 17.62 398.289 16.42 400.249 15.54C402.249 14.66 404.589 14.22 407.269 14.22C411.229 14.22 414.389 15.22 416.749 17.22C419.109 19.18 420.409 21.84 420.649 25.2H412.609C412.489 23.88 411.929 22.84 410.929 22.08C409.969 21.28 408.669 20.88 407.029 20.88C405.509 20.88 404.329 21.16 403.489 21.72C402.689 22.28 402.289 23.06 402.289 24.06C402.289 25.18 402.849 26.04 403.969 26.64C405.089 27.2 406.829 27.78 409.189 28.38C411.589 28.98 413.569 29.6 415.129 30.24C416.689 30.88 418.029 31.88 419.149 33.24C420.309 34.56 420.909 36.32 420.949 38.52C420.949 40.44 420.409 42.16 419.329 43.68C418.289 45.2 416.769 46.4 414.769 47.28C412.809 48.12 410.509 48.54 407.869 48.54Z" fill="url(#paint0_linear_17_102)" fill-opacity="0.32"/>
<defs>
<linearGradient id="paint0_linear_17_102" x1="-16" y1="-9" x2="424" y2="63" gradientUnits="userSpaceOnUse">
<stop stop-color="#642CA9"/>
<stop offset="1" stop-color="#FF36AB"/>
</linearGradient>
</defs>
</svg>
