<svg width="500" height="65" viewBox="0 0 393 65" fill="none" xmlns="http://www.w3.org/2000/svg">
<path d="M2.6 48.42C-0.319999 48.42 -2.96 47.92 -5.32 46.92C-7.64 45.92 -9.48 44.48 -10.84 42.6C-12.2 40.72 -12.9 38.5 -12.94 35.94H-3.94C-3.82 37.66 -3.22 39.02 -2.14 40.02C-1.02 41.02 0.5 41.52 2.42 41.52C4.38 41.52 5.92 41.06 7.04 40.14C8.16 39.18 8.72 37.94 8.72 36.42C8.72 35.18 8.34 34.16 7.58 33.36C6.82 32.56 5.86 31.94 4.7 31.5C3.58 31.02 2.02 30.5 0.0200012 29.94C-2.7 29.14 -4.92 28.36 -6.64 27.6C-8.32 26.8 -9.78 25.62 -11.02 24.06C-12.22 22.46 -12.82 20.34 -12.82 17.7C-12.82 15.22 -12.2 13.06 -10.96 11.22C-9.72 9.38 -7.98 7.98 -5.74 7.02C-3.5 6.02 -0.939999 5.52 1.94 5.52C6.26 5.52 9.76 6.58 12.44 8.7C15.16 10.78 16.66 13.7 16.94 17.46H7.7C7.62 16.02 7 14.84 5.84 13.92C4.72 12.96 3.22 12.48 1.34 12.48C-0.299999 12.48 -1.62 12.9 -2.62 13.74C-3.58 14.58 -4.06 15.8 -4.06 17.4C-4.06 18.52 -3.7 19.46 -2.98 20.22C-2.22 20.94 -1.3 21.54 -0.219999 22.02C0.900001 22.46 2.46 22.98 4.46 23.58C7.18 24.38 9.4 25.18 11.12 25.98C12.84 26.78 14.32 27.98 15.56 29.58C16.8 31.18 17.42 33.28 17.42 35.88C17.42 38.12 16.84 40.2 15.68 42.12C14.52 44.04 12.82 45.58 10.58 46.74C8.34 47.86 5.68 48.42 2.6 48.42ZM54.4025 30.66C54.4025 31.86 54.3225 32.94 54.1625 33.9H29.8625C30.0625 36.3 30.9025 38.18 32.3825 39.54C33.8625 40.9 35.6825 41.58 37.8425 41.58C40.9625 41.58 43.1825 40.24 44.5025 37.56H53.5625C52.6025 40.76 50.7625 43.4 48.0425 45.48C45.3225 47.52 41.9825 48.54 38.0225 48.54C34.8225 48.54 31.9425 47.84 29.3825 46.44C26.8625 45 24.8825 42.98 23.4425 40.38C22.0425 37.78 21.3425 34.78 21.3425 31.38C21.3425 27.94 22.0425 24.92 23.4425 22.32C24.8425 19.72 26.8025 17.72 29.3225 16.32C31.8425 14.92 34.7425 14.22 38.0225 14.22C41.1825 14.22 44.0025 14.9 46.4825 16.26C49.0025 17.62 50.9425 19.56 52.3025 22.08C53.7025 24.56 54.4025 27.42 54.4025 30.66ZM45.7025 28.26C45.6625 26.1 44.8825 24.38 43.3625 23.1C41.8425 21.78 39.9825 21.12 37.7825 21.12C35.7025 21.12 33.9425 21.76 32.5025 23.04C31.1025 24.28 30.2425 26.02 29.9225 28.26H45.7025ZM67.7337 3.6V48H59.3337V3.6H67.7337ZM90.073 21.66H84.253V48H75.733V21.66H71.953V14.76H75.733V13.08C75.733 9 76.893 6 79.213 4.08C81.533 2.16 85.033 1.26 89.713 1.38V8.46C87.673 8.42 86.253 8.76 85.453 9.48C84.653 10.2 84.253 11.5 84.253 13.38V14.76H90.073V21.66ZM119.877 23.04V30.12H94.4366V23.04H119.877ZM136.497 12.9V23.4H150.597V30.06H136.497V41.16H152.397V48H128.097V6.06H152.397V12.9H136.497ZM177.251 14.28C181.211 14.28 184.411 15.54 186.851 18.06C189.291 20.54 190.511 24.02 190.511 28.5V48H182.111V29.64C182.111 27 181.451 24.98 180.131 23.58C178.811 22.14 177.011 21.42 174.731 21.42C172.411 21.42 170.571 22.14 169.211 23.58C167.891 24.98 167.231 27 167.231 29.64V48H158.831V14.76H167.231V18.9C168.351 17.46 169.771 16.34 171.491 15.54C173.251 14.7 175.171 14.28 177.251 14.28ZM216.019 14.28C218.539 14.28 220.779 14.84 222.739 15.96C224.699 17.04 226.219 18.66 227.299 20.82C228.419 22.94 228.979 25.5 228.979 28.5V48H220.579V29.64C220.579 27 219.919 24.98 218.599 23.58C217.279 22.14 215.479 21.42 213.199 21.42C210.879 21.42 209.039 22.14 207.679 23.58C206.359 24.98 205.699 27 205.699 29.64V48H197.299V3.6H205.699V18.9C206.779 17.46 208.219 16.34 210.019 15.54C211.819 14.7 213.819 14.28 216.019 14.28ZM233.607 31.26C233.607 27.9 234.267 24.92 235.587 22.32C236.947 19.72 238.767 17.72 241.047 16.32C243.367 14.92 245.947 14.22 248.787 14.22C251.267 14.22 253.427 14.72 255.267 15.72C257.147 16.72 258.647 17.98 259.767 19.5V14.76H268.227V48H259.767V43.14C258.687 44.7 257.187 46 255.267 47.04C253.387 48.04 251.207 48.54 248.727 48.54C245.927 48.54 243.367 47.82 241.047 46.38C238.767 44.94 236.947 42.92 235.587 40.32C234.267 37.68 233.607 34.66 233.607 31.26ZM259.767 31.38C259.767 29.34 259.367 27.6 258.567 26.16C257.767 24.68 256.687 23.56 255.327 22.8C253.967 22 252.507 21.6 250.947 21.6C249.387 21.6 247.947 21.98 246.627 22.74C245.307 23.5 244.227 24.62 243.387 26.1C242.587 27.54 242.187 29.26 242.187 31.26C242.187 33.26 242.587 35.02 243.387 36.54C244.227 38.02 245.307 39.16 246.627 39.96C247.987 40.76 249.427 41.16 250.947 41.16C252.507 41.16 253.967 40.78 255.327 40.02C256.687 39.22 257.767 38.1 258.567 36.66C259.367 35.18 259.767 33.42 259.767 31.38ZM293.651 14.28C297.611 14.28 300.811 15.54 303.251 18.06C305.691 20.54 306.911 24.02 306.911 28.5V48H298.511V29.64C298.511 27 297.851 24.98 296.531 23.58C295.211 22.14 293.411 21.42 291.131 21.42C288.811 21.42 286.971 22.14 285.611 23.58C284.291 24.98 283.631 27 283.631 29.64V48H275.231V14.76H283.631V18.9C284.751 17.46 286.171 16.34 287.891 15.54C289.651 14.7 291.571 14.28 293.651 14.28ZM311.539 31.38C311.539 27.94 312.239 24.94 313.639 22.38C315.039 19.78 316.979 17.78 319.459 16.38C321.939 14.94 324.779 14.22 327.979 14.22C332.099 14.22 335.499 15.26 338.179 17.34C340.899 19.38 342.719 22.26 343.639 25.98H334.579C334.099 24.54 333.279 23.42 332.119 22.62C330.999 21.78 329.599 21.36 327.919 21.36C325.519 21.36 323.619 22.24 322.219 24C320.819 25.72 320.119 28.18 320.119 31.38C320.119 34.54 320.819 37 322.219 38.76C323.619 40.48 325.519 41.34 327.919 41.34C331.319 41.34 333.539 39.82 334.579 36.78H343.639C342.719 40.38 340.899 43.24 338.179 45.36C335.459 47.48 332.059 48.54 327.979 48.54C324.779 48.54 321.939 47.84 319.459 46.44C316.979 45 315.039 43 313.639 40.44C312.239 37.84 311.539 34.82 311.539 31.38ZM379.492 30.66C379.492 31.86 379.412 32.94 379.252 33.9H354.952C355.152 36.3 355.992 38.18 357.472 39.54C358.952 40.9 360.772 41.58 362.932 41.58C366.052 41.58 368.272 40.24 369.592 37.56H378.652C377.692 40.76 375.852 43.4 373.132 45.48C370.412 47.52 367.072 48.54 363.112 48.54C359.912 48.54 357.032 47.84 354.472 46.44C351.952 45 349.972 42.98 348.532 40.38C347.132 37.78 346.432 34.78 346.432 31.38C346.432 27.94 347.132 24.92 348.532 22.32C349.932 19.72 351.892 17.72 354.412 16.32C356.932 14.92 359.832 14.22 363.112 14.22C366.272 14.22 369.092 14.9 371.572 16.26C374.092 17.62 376.032 19.56 377.392 22.08C378.792 24.56 379.492 27.42 379.492 30.66ZM370.792 28.26C370.752 26.1 369.972 24.38 368.452 23.1C366.932 21.78 365.072 21.12 362.872 21.12C360.792 21.12 359.032 21.76 357.592 23.04C356.192 24.28 355.332 26.02 355.012 28.26H370.792ZM425.704 14.28C429.784 14.28 433.064 15.54 435.544 18.06C438.064 20.54 439.324 24.02 439.324 28.5V48H430.924V29.64C430.924 27.04 430.264 25.06 428.944 23.7C427.624 22.3 425.824 21.6 423.544 21.6C421.264 21.6 419.444 22.3 418.084 23.7C416.764 25.06 416.104 27.04 416.104 29.64V48H407.704V29.64C407.704 27.04 407.044 25.06 405.724 23.7C404.404 22.3 402.604 21.6 400.324 21.6C398.004 21.6 396.164 22.3 394.804 23.7C393.484 25.06 392.824 27.04 392.824 29.64V48H384.424V14.76H392.824V18.78C393.904 17.38 395.284 16.28 396.964 15.48C398.684 14.68 400.564 14.28 402.604 14.28C405.204 14.28 407.524 14.84 409.564 15.96C411.604 17.04 413.184 18.6 414.304 20.64C415.384 18.72 416.944 17.18 418.984 16.02C421.064 14.86 423.304 14.28 425.704 14.28ZM476.995 30.66C476.995 31.86 476.915 32.94 476.755 33.9H452.455C452.655 36.3 453.495 38.18 454.975 39.54C456.455 40.9 458.275 41.58 460.435 41.58C463.555 41.58 465.775 40.24 467.095 37.56H476.155C475.195 40.76 473.355 43.4 470.635 45.48C467.915 47.52 464.575 48.54 460.615 48.54C457.415 48.54 454.535 47.84 451.975 46.44C449.455 45 447.475 42.98 446.035 40.38C444.635 37.78 443.935 34.78 443.935 31.38C443.935 27.94 444.635 24.92 446.035 22.32C447.435 19.72 449.395 17.72 451.915 16.32C454.435 14.92 457.335 14.22 460.615 14.22C463.775 14.22 466.595 14.9 469.075 16.26C471.595 17.62 473.535 19.56 474.895 22.08C476.295 24.56 476.995 27.42 476.995 30.66ZM468.295 28.26C468.255 26.1 467.475 24.38 465.955 23.1C464.435 21.78 462.575 21.12 460.375 21.12C458.295 21.12 456.535 21.76 455.095 23.04C453.695 24.28 452.835 26.02 452.515 28.26H468.295ZM500.346 14.28C504.306 14.28 507.506 15.54 509.946 18.06C512.386 20.54 513.606 24.02 513.606 28.5V48H505.206V29.64C505.206 27 504.546 24.98 503.226 23.58C501.906 22.14 500.106 21.42 497.826 21.42C495.506 21.42 493.666 22.14 492.306 23.58C490.986 24.98 490.326 27 490.326 29.64V48H481.926V14.76H490.326V18.9C491.446 17.46 492.866 16.34 494.586 15.54C496.346 14.7 498.266 14.28 500.346 14.28ZM530.174 21.66V37.74C530.174 38.86 530.434 39.68 530.954 40.2C531.514 40.68 532.434 40.92 533.714 40.92H537.614V48H532.334C525.254 48 521.714 44.56 521.714 37.68V21.66H517.754V14.76H521.714V6.54H530.174V14.76H537.614V21.66H530.174ZM563.952 6.12V48H555.552V6.12H563.952ZM589.472 14.28C593.432 14.28 596.632 15.54 599.072 18.06C601.512 20.54 602.732 24.02 602.732 28.5V48H594.332V29.64C594.332 27 593.672 24.98 592.352 23.58C591.032 22.14 589.232 21.42 586.952 21.42C584.632 21.42 582.792 22.14 581.432 23.58C580.112 24.98 579.452 27 579.452 29.64V48H571.052V14.76H579.452V18.9C580.572 17.46 581.992 16.34 583.712 15.54C585.472 14.7 587.392 14.28 589.472 14.28ZM622.24 48.54C619.52 48.54 617.08 48.06 614.92 47.1C612.76 46.1 611.04 44.76 609.76 43.08C608.52 41.4 607.84 39.54 607.72 37.5H616.18C616.34 38.78 616.96 39.84 618.04 40.68C619.16 41.52 620.54 41.94 622.18 41.94C623.78 41.94 625.02 41.62 625.9 40.98C626.82 40.34 627.28 39.52 627.28 38.52C627.28 37.44 626.72 36.64 625.6 36.12C624.52 35.56 622.78 34.96 620.38 34.32C617.9 33.72 615.86 33.1 614.26 32.46C612.7 31.82 611.34 30.84 610.18 29.52C609.06 28.2 608.5 26.42 608.5 24.18C608.5 22.34 609.02 20.66 610.06 19.14C611.14 17.62 612.66 16.42 614.62 15.54C616.62 14.66 618.96 14.22 621.64 14.22C625.6 14.22 628.76 15.22 631.12 17.22C633.48 19.18 634.78 21.84 635.02 25.2H626.98C626.86 23.88 626.3 22.84 625.3 22.08C624.34 21.28 623.04 20.88 621.4 20.88C619.88 20.88 618.7 21.16 617.86 21.72C617.06 22.28 616.66 23.06 616.66 24.06C616.66 25.18 617.22 26.04 618.34 26.64C619.46 27.2 621.2 27.78 623.56 28.38C625.96 28.98 627.94 29.6 629.5 30.24C631.06 30.88 632.4 31.88 633.52 33.24C634.68 34.56 635.28 36.32 635.32 38.52C635.32 40.44 634.78 42.16 633.7 43.68C632.66 45.2 631.14 46.4 629.14 47.28C627.18 48.12 624.88 48.54 622.24 48.54ZM645.275 10.8C643.795 10.8 642.555 10.34 641.555 9.42C640.595 8.46 640.115 7.28 640.115 5.88C640.115 4.48 640.595 3.32 641.555 2.4C642.555 1.44 643.795 0.959998 645.275 0.959998C646.755 0.959998 647.975 1.44 648.935 2.4C649.935 3.32 650.435 4.48 650.435 5.88C650.435 7.28 649.935 8.46 648.935 9.42C647.975 10.34 646.755 10.8 645.275 10.8ZM649.415 14.76V48H641.015V14.76H649.415ZM669.534 14.22C672.014 14.22 674.194 14.72 676.074 15.72C677.954 16.68 679.434 17.94 680.514 19.5V14.76H688.974V48.24C688.974 51.32 688.354 54.06 687.114 56.46C685.874 58.9 684.014 60.82 681.534 62.22C679.054 63.66 676.054 64.38 672.534 64.38C667.814 64.38 663.934 63.28 660.894 61.08C657.894 58.88 656.194 55.88 655.794 52.08H664.134C664.574 53.6 665.514 54.8 666.954 55.68C668.434 56.6 670.214 57.06 672.294 57.06C674.734 57.06 676.714 56.32 678.234 54.84C679.754 53.4 680.514 51.2 680.514 48.24V43.08C679.434 44.64 677.934 45.94 676.014 46.98C674.134 48.02 671.974 48.54 669.534 48.54C666.734 48.54 664.174 47.82 661.854 46.38C659.534 44.94 657.694 42.92 656.334 40.32C655.014 37.68 654.354 34.66 654.354 31.26C654.354 27.9 655.014 24.92 656.334 22.32C657.694 19.72 659.514 17.72 661.794 16.32C664.114 14.92 666.694 14.22 669.534 14.22ZM680.514 31.38C680.514 29.34 680.114 27.6 679.314 26.16C678.514 24.68 677.434 23.56 676.074 22.8C674.714 22 673.254 21.6 671.694 21.6C670.134 21.6 668.694 21.98 667.374 22.74C666.054 23.5 664.974 24.62 664.134 26.1C663.334 27.54 662.934 29.26 662.934 31.26C662.934 33.26 663.334 35.02 664.134 36.54C664.974 38.02 666.054 39.16 667.374 39.96C668.734 40.76 670.174 41.16 671.694 41.16C673.254 41.16 674.714 40.78 676.074 40.02C677.434 39.22 678.514 38.1 679.314 36.66C680.114 35.18 680.514 33.42 680.514 31.38ZM714.698 14.28C717.218 14.28 719.458 14.84 721.418 15.96C723.378 17.04 724.898 18.66 725.978 20.82C727.098 22.94 727.658 25.5 727.658 28.5V48H719.258V29.64C719.258 27 718.598 24.98 717.278 23.58C715.958 22.14 714.158 21.42 711.878 21.42C709.558 21.42 707.718 22.14 706.358 23.58C705.038 24.98 704.378 27 704.378 29.64V48H695.978V3.6H704.378V18.9C705.458 17.46 706.898 16.34 708.698 15.54C710.498 14.7 712.498 14.28 714.698 14.28ZM744.226 21.66V37.74C744.226 38.86 744.486 39.68 745.006 40.2C745.566 40.68 746.486 40.92 747.766 40.92H751.666V48H746.386C739.306 48 735.766 44.56 735.766 37.68V21.66H731.806V14.76H735.766V6.54H744.226V14.76H751.666V21.66H744.226ZM769.228 48.54C766.508 48.54 764.068 48.06 761.908 47.1C759.748 46.1 758.028 44.76 756.748 43.08C755.508 41.4 754.828 39.54 754.708 37.5H763.168C763.328 38.78 763.948 39.84 765.028 40.68C766.148 41.52 767.528 41.94 769.168 41.94C770.768 41.94 772.008 41.62 772.888 40.98C773.808 40.34 774.268 39.52 774.268 38.52C774.268 37.44 773.708 36.64 772.588 36.12C771.508 35.56 769.768 34.96 767.368 34.32C764.888 33.72 762.848 33.1 761.248 32.46C759.688 31.82 758.328 30.84 757.168 29.52C756.048 28.2 755.488 26.42 755.488 24.18C755.488 22.34 756.008 20.66 757.048 19.14C758.128 17.62 759.648 16.42 761.608 15.54C763.608 14.66 765.948 14.22 768.628 14.22C772.588 14.22 775.748 15.22 778.108 17.22C780.468 19.18 781.768 21.84 782.008 25.2H773.968C773.848 23.88 773.288 22.84 772.288 22.08C771.328 21.28 770.028 20.88 768.388 20.88C766.868 20.88 765.688 21.16 764.848 21.72C764.048 22.28 763.648 23.06 763.648 24.06C763.648 25.18 764.208 26.04 765.328 26.64C766.448 27.2 768.188 27.78 770.548 28.38C772.948 28.98 774.928 29.6 776.488 30.24C778.048 30.88 779.388 31.88 780.508 33.24C781.668 34.56 782.268 36.32 782.308 38.52C782.308 40.44 781.768 42.16 780.688 43.68C779.648 45.2 778.128 46.4 776.128 47.28C774.168 48.12 771.868 48.54 769.228 48.54Z" fill="url(#paint0_linear_17_178)" fill-opacity="0.32"/>
<defs>
<linearGradient id="paint0_linear_17_178" x1="-16" y1="-9" x2="786" y2="63" gradientUnits="userSpaceOnUse">
<stop stop-color="#642CA9"/>
<stop offset="1" stop-color="#FF36AB"/>
</linearGradient>
</defs>
</svg>
